<?xml version="1.0" encoding="iso-8859-1"?>
<!-- Uploaded to: SVG Repo, www.svgrepo.com, Generator: SVG Repo Mixer Tools -->
<svg height="800px" width="800px" version="1.1" id="Layer_1" xmlns="http://www.w3.org/2000/svg" xmlns:xlink="http://www.w3.org/1999/xlink" 
	 viewBox="0 0 511.999 511.999" xml:space="preserve">
<path style="fill:#FF7058;" d="M400.037,511.999H111.151c-9.22,0-16.696-7.475-16.696-16.696V375.13
	c0-14.714,17.724-22.213,28.29-12.012c35.846,34.6,83.025,53.655,132.847,53.655s97.002-19.055,132.847-53.655
	c10.588-10.219,28.29-2.675,28.29,12.012v120.174C416.732,504.524,409.257,511.999,400.037,511.999z"/>
<path style="fill:#F1543F;" d="M388.441,363.118c-35.846,34.6-83.024,53.655-132.847,53.655l0,0v95.226h144.443
	c9.22,0,16.696-7.475,16.696-16.696V375.13C416.732,360.443,399.029,352.899,388.441,363.118z"/>
<path style="fill:#FFCC33;" d="M255.594,450.164c-122.68,0-224.677-98.991-224.677-224.676
	C30.918,101.601,131.708,0.812,255.594,0.812s224.676,100.789,224.676,224.676C480.27,351.308,378.161,450.164,255.594,450.164z"/>
<path style="fill:#8DB600;" d="M255.594,0.812L255.594,0.812v449.352l0,0c122.567,0,224.676-98.856,224.676-224.676
	C480.27,101.601,379.481,0.812,255.594,0.812z"/>
<path style="fill:#FF7058;" d="M255.594,346.174c-66.547,0-120.686-54.14-120.686-120.686s54.14-120.685,120.686-120.685
	s120.686,54.14,120.686,120.686S322.14,346.174,255.594,346.174z M255.594,138.194c-48.135,0-87.295,39.16-87.295,87.295
	s39.16,87.295,87.295,87.295s87.295-39.16,87.295-87.295S303.728,138.194,255.594,138.194z"/>
<path style="fill:#F1543F;" d="M255.594,104.802L255.594,104.802v33.391l0,0c48.135,0,87.295,39.16,87.295,87.295
	s-39.16,87.295-87.295,87.295l0,0v33.391l0,0c66.547,0,120.686-54.14,120.686-120.686S322.14,104.802,255.594,104.802z"/>
<path style="fill:#40596B;" d="M243.789,237.294c-6.52-6.52-6.52-17.091,0-23.611L452.581,4.89c6.519-6.52,17.091-6.52,23.611,0
	s6.52,17.091,0,23.611L267.4,237.294C260.881,243.814,250.309,243.815,243.789,237.294z"/>
<path style="fill:#364C5C;" d="M476.192,4.89c-6.519-6.52-17.091-6.52-23.611,0L255.594,201.878v40.307
	c4.273,0,8.546-1.631,11.806-4.89L476.192,28.501C482.712,21.981,482.712,11.41,476.192,4.89z"/>
</svg>