<?xml version="1.0" encoding="UTF-8"?>
<!DOCTYPE svg PUBLIC "-//W3C//DTD SVG 1.1//EN" "http://www.w3.org/Graphics/SVG/1.1/DTD/svg11.dtd">
<svg version="1.1" xmlns="http://www.w3.org/2000/svg" xmlns:xlink="http://www.w3.org/1999/xlink" x="0" y="0" width="170" height="60" viewBox="0, 0, 170, 60">
  <g id="Layer_1">
    <path d="M10,21.304 L10,26.682 L15.378,26.682 C15.378,23.712 12.97,21.304 10,21.304" fill="#141330"/>
    <path d="M18.59,21.234 C18.59,21.234 14.862,22.886 14.016,25.759 C14.016,25.759 15.734,25.936 15.814,25.989 C15.893,26.042 18.59,21.234 18.59,21.234" fill="#141330"/>
    <path d="M27.053,40.279 C25.187,40.279 23.674,38.766 23.674,36.9 L23.674,30.254 C23.674,27.335 22.406,25.837 19.756,25.837 C17.183,25.798 15.454,28.027 15.454,30.485 L15.454,40.279 L10.484,40.279 C10.216,40.279 10,40.062 10,39.795 L10,21.304 L12.566,21.304 C13.936,21.304 15.077,22.358 15.185,23.724 C16.875,21.535 19.026,20.806 21.331,20.843 C25.594,20.843 29.243,22.841 29.243,30.216 L29.243,40.279 z" fill="#141330"/>
    <path d="M37.352,30.791 C37.352,33.94 39.579,35.785 42.345,35.785 C45.456,35.785 47.376,33.365 47.376,30.983 C47.376,28.256 45.649,25.759 42.345,25.759 C39.579,25.759 37.352,27.642 37.352,30.791 M49.766,21.304 L52.754,21.304 L52.754,40.279 L50.162,40.279 C48.789,40.279 47.629,39.259 47.453,37.897 C46.186,39.894 43.459,40.663 41.615,40.701 C35.93,40.739 31.82,37.052 31.82,30.791 C31.82,24.492 36.161,20.806 41.769,20.881 C44.15,20.881 46.378,21.803 47.376,23.494 C47.485,22.255 48.522,21.304 49.766,21.304" fill="#141330"/>
    <path d="M61.822,21.343 L62.244,23.417 C63.512,21.65 65.202,20.882 67.314,20.882 C69.12,20.882 70.618,21.42 71.962,22.61 L69.657,26.989 C68.735,26.336 67.776,26.029 66.623,26.029 C64.242,26.029 62.206,27.565 62.206,30.408 L62.206,40.279 L56.675,40.279 L56.675,21.343 z" fill="#141330"/>
    <path d="M102.157,13.431 L102.157,28.756 L107.766,21.343 L114.295,21.343 L114.295,21.688 L107.343,30.254 L115.37,39.856 L115.37,40.279 L108.725,40.279 L102.157,31.944 L102.157,40.279 L96.626,40.279 L96.626,18.962 C96.626,15.908 99.102,13.431 102.157,13.431" fill="#141330"/>
    <path d="M128.472,28.563 C128.357,26.489 126.244,25.529 123.939,25.529 C121.712,25.529 120.022,26.681 119.484,28.563 z M119.484,32.596 C119.752,34.44 121.519,35.938 124.63,35.938 C125.38,35.938 126.273,35.851 127.147,35.621 C128.828,35.177 130.616,35.627 131.779,36.919 L132.659,37.897 C130.623,39.894 127.358,40.7 124.515,40.7 C117.64,40.7 113.876,36.667 113.876,30.599 C113.876,24.838 117.756,20.805 123.939,20.805 C130.392,20.805 134.617,24.838 133.427,32.596 z" fill="#141330"/>
    <path d="M149.87,28.563 C149.755,26.489 147.642,25.529 145.337,25.529 C143.11,25.529 141.42,26.681 140.882,28.563 z M140.882,32.596 C141.15,34.44 142.917,35.938 146.028,35.938 C146.736,35.938 147.573,35.86 148.4,35.658 C150.252,35.203 152.203,35.837 153.479,37.255 L154.057,37.897 C152.021,39.894 148.756,40.7 145.913,40.7 C139.038,40.7 135.274,36.667 135.274,30.599 C135.274,24.838 139.154,20.805 145.337,20.805 C151.79,20.805 156.015,24.838 154.825,32.596 z" fill="#141330"/>
    <path d="M164.315,21.42 L164.315,21.42 L169.116,21.42 C169.116,23.965 167.053,26.028 164.507,26.028 L164.277,26.028 L164.277,33.172 C164.277,35.17 165.391,35.708 166.427,35.708 C167.081,35.708 168.117,35.555 168.732,35.247 L170,39.856 C168.617,40.394 167.503,40.624 166.005,40.701 C161.895,40.893 158.784,39.088 158.784,33.172 L158.784,26.028 L156.365,26.028 L156.365,21.42 L158.784,21.42 L158.784,16.733 L159.047,16.704 C161.857,16.392 164.315,18.592 164.315,21.42" fill="#141330"/>
    <path d="M56.675,21.304 L56.675,26.682 L62.053,26.682 C62.053,23.712 59.645,21.304 56.675,21.304" fill="#141330"/>
    <path d="M65.14,21.235 C64.61,21.422 63.963,21.715 63.3,22.189 C61.736,23.308 61.006,24.772 60.696,25.529 C60.696,25.529 61.126,25.573 61.565,25.624 C62.118,25.688 62.417,25.751 62.494,25.758 C62.934,25.803 63.703,24.996 65.14,21.235" fill="#141330"/>
    <path d="M29.244,40.196 L29.244,34.607 L23.655,34.607 C23.655,37.694 26.157,40.196 29.244,40.196" fill="#141330"/>
    <path d="M52.754,21.304 L52.754,26.682 L47.376,26.682 C47.376,23.712 49.784,21.304 52.754,21.304 z" fill="#141330"/>
    <path d="M47.376,34.945 L52.754,34.945 L52.754,40.323 L52.754,40.323 C49.784,40.323 47.376,37.915 47.376,34.945" fill="#141330"/>
    <path d="M45.216,21.613 C45.216,21.613 46.62,22.034 48.662,24.849 L47.876,25.759 L46.369,25.117 z" fill="#141330"/>
    <path d="M45.452,39.697 C45.452,39.697 47.639,38.717 48.868,35.584 L47.376,34.945 L45.217,38.598 z" fill="#141330"/>
    <path d="M77.304,30.791 C77.304,33.94 79.531,35.785 82.297,35.785 C85.408,35.785 87.328,33.365 87.328,30.983 C87.328,28.256 85.601,25.759 82.297,25.759 C79.531,25.759 77.304,27.642 77.304,30.791 M89.718,21.304 L92.706,21.304 L92.706,40.279 L90.114,40.279 C88.741,40.279 87.581,39.259 87.405,37.897 C86.138,39.894 83.411,40.663 81.567,40.701 C75.882,40.739 71.772,37.052 71.772,30.791 C71.772,24.492 76.113,20.806 81.721,20.881 C84.102,20.881 86.33,21.803 87.328,23.494 C87.437,22.255 88.474,21.304 89.718,21.304" fill="#141330"/>
    <path d="M92.706,21.304 L92.706,26.682 L87.328,26.682 C87.328,23.712 89.736,21.304 92.706,21.304" fill="#141330"/>
    <path d="M87.329,34.945 L92.707,34.945 L92.707,40.323 C89.737,40.323 87.329,37.915 87.329,34.945" fill="#141330"/>
    <path d="M85.169,21.613 C85.169,21.613 86.573,22.034 88.615,24.849 L87.829,25.759 L86.322,25.117 z" fill="#141330"/>
    <path d="M85.404,39.697 C85.404,39.697 87.591,38.717 88.82,35.584 L87.328,34.945 L85.169,38.598 z" fill="#141330"/>
  </g>
</svg>
